<svg width="16" height="21" viewBox="0 0 16 21" fill="none" xmlns="http://www.w3.org/2000/svg">
<path d="M7.00499 16.4828H8.99699C10.0593 16.4771 11.0758 16.0579 11.8229 15.3173C12.57 14.5767 12.9866 13.5754 12.981 12.5337V4.63434C12.9838 4.11843 12.8829 3.60703 12.6841 3.12936C12.4853 2.65168 12.1926 2.21708 11.8225 1.85037C11.4525 1.48365 11.0124 1.192 10.5274 0.992077C10.0425 0.792152 9.52207 0.687863 8.99599 0.685165H7.00499C5.9427 0.690872 4.92622 1.11012 4.1791 1.85071C3.43198 2.5913 3.01541 3.59258 3.02099 4.63434V12.5337C3.01541 13.5754 3.43198 14.5767 4.1791 15.3173C4.92622 16.0579 5.9427 16.4771 7.00499 16.4828ZM5.01299 4.63434C5.01115 4.37627 5.06125 4.12039 5.16043 3.88136C5.25962 3.64232 5.40593 3.42483 5.59098 3.24135C5.77604 3.05787 5.99619 2.912 6.23884 2.81212C6.48148 2.71223 6.74184 2.66029 7.00499 2.65926H8.99699C9.26014 2.66029 9.5205 2.71223 9.76314 2.81212C10.0058 2.912 10.2259 3.05787 10.411 3.24135C10.5961 3.42483 10.7424 3.64232 10.8415 3.88136C10.9407 4.12039 10.9908 4.37627 10.989 4.63434H7.99999V6.60941H10.988V9.57203H7.99999V11.5471H10.988V12.5346C10.9902 12.7929 10.9404 13.0491 10.8414 13.2885C10.7424 13.5279 10.5962 13.7457 10.4111 13.9295C10.226 14.1133 10.0057 14.2595 9.76284 14.3595C9.52 14.4596 9.2594 14.5116 8.99599 14.5127H7.00499C6.74184 14.5116 6.48148 14.4597 6.23884 14.3598C5.99619 14.2599 5.77604 14.1141 5.59098 13.9306C5.40593 13.7471 5.25962 13.5296 5.16043 13.2906C5.06125 13.0515 5.01115 12.7956 5.01299 12.5376V4.63434Z" fill="white"/>
<path d="M14 9.43768V13.3868C14.0029 14.6913 13.4782 15.9435 12.5408 16.869C11.6035 17.7945 10.3301 18.3176 9.00002 18.3236H7.00002C5.66992 18.3176 4.39653 17.7945 3.45919 16.869C2.52185 15.9435 1.99709 14.6913 2.00002 13.3868V9.43768H1.83944e-05V13.3868C-0.00423806 15.2131 0.730364 16.9664 2.04266 18.2622C3.35496 19.558 5.13779 20.2903 7.00002 20.2986H9.00002C10.8622 20.2903 12.6451 19.558 13.9574 18.2622C15.2697 16.9664 16.0043 15.2131 16 13.3868V9.43768H14Z" fill="white"/>
</svg>
